<svg xmlns="http://www.w3.org/2000/svg" width="24" height="24" viewBox="0 0 24 24" shape-rendering="crispEdges">
  <path fill="#152130" d="M3 2h18v2h2v16h-2v2H3v-2H1V4h2z"/>
  <path fill="#3b5876" d="M4 4h16v2h2v13h-2v1H4v-1H2V6h2z"/>
  <path fill="#dcebf2" d="M10 4h4v1h1v4h-1v1h-4V9H9V5h1zm0 7h4l2 2 3 2-1 2-4-2v6h-3v-6l-4 2-1-2 3-2z"/>
  <path fill="#8fc5df" d="M11 5h3v3h-3zM10 12h3v7h-1v-5h-2z"/>
  <path fill="#dcebf2" d="M8 20h4v2H8zM13 20h4v2h-4z"/>
  <path fill="#273b50" d="M4 5h4v1H4zM16 5h4v1h-4z"/>
</svg>
